# Blender 4.4.0
# www.blender.org
mtllib Arco.mtl
o Arco
v -4.984833 0.000004 1.413315
v -6.401108 0.000004 3.314800
v -6.401108 0.000004 -3.234642
v -4.984833 0.000004 -1.333157
v -9.863022 0.000004 1.413315
v -8.446747 0.000004 3.314800
v -9.863022 0.000004 -1.333157
v -8.446747 0.000004 -3.234642
v 4.940948 0.000004 -1.333160
v 6.357239 0.000004 -3.234642
v 6.357239 0.000004 3.314796
v 4.940964 0.000004 1.413315
v 9.819153 0.000004 -1.333160
v 8.402878 0.000004 -3.234642
v 9.819153 0.000004 1.413315
v 8.402878 0.000004 3.314796
v -8.446747 0.000004 3.314800
v -6.401108 0.000004 3.314800
v -4.984833 0.000004 1.413315
v -4.984833 0.000004 -1.333157
v -6.401108 0.000004 -3.234642
v -8.446747 0.000004 -3.234642
v -9.863022 0.000004 -1.333157
v -9.863022 0.000004 1.413315
v 6.357239 0.000004 -3.234642
v 8.402878 0.000004 -3.234642
v 4.940948 0.000004 -1.333160
v 4.940964 0.000004 1.413315
v 6.357239 0.000004 3.314796
v 8.402878 0.000004 3.314796
v 9.819153 0.000004 1.413315
v 9.819153 0.000004 -1.333160
v -8.446747 5.458348 3.314800
v -6.401108 5.458348 3.314800
v -4.984833 5.458348 1.413314
v -4.984833 5.458348 -1.333157
v -6.401108 5.458347 -3.234643
v -8.446747 5.458347 -3.234643
v -9.863022 5.458348 -1.333157
v -9.863022 5.458348 1.413314
v 6.357239 5.458347 -3.234643
v 8.402878 5.458347 -3.234643
v 4.940948 5.458348 -1.333161
v 4.940964 5.458348 1.413314
v 6.357239 5.458348 3.314796
v 8.402878 5.458348 3.314796
v 9.819153 5.458348 1.413314
v 9.819153 5.458348 -1.333161
v -5.046951 7.940937 -3.234643
v -5.046951 9.050734 -3.234643
v -5.046951 9.819088 -1.333157
v -5.046951 9.819088 1.413314
v -5.046951 9.050734 3.314800
v -5.046951 7.940938 3.314800
v -5.046951 7.172584 1.413314
v -5.046951 7.172584 -1.333157
v 4.058716 7.940937 -3.234643
v 4.058716 9.050734 -3.234643
v 4.058716 9.819088 -1.333157
v 4.058716 9.819088 1.413314
v 4.058716 9.050734 3.314800
v 4.058716 7.940938 3.314800
v 4.058716 7.172584 1.413314
v 4.058716 7.172584 -1.333157
vn -0.0000 -1.0000 -0.0000
vn -0.0000 -0.0000 -1.0000
vn 0.8020 -0.0000 -0.5973
vn -0.0000 1.0000 -0.0001
vn -0.0000 1.0000 -0.0000
vn -0.0000 -0.0000 -0.0000
vn -0.0000 -0.0000 1.0000
vn 0.6036 0.7973 -0.0000
vn 0.8020 -0.0000 0.5973
vn -0.8020 -0.0000 -0.5973
vn 1.0000 -0.0000 -0.0000
vn -1.0000 -0.0000 -0.0000
vn -0.8020 -0.0000 0.5973
vn 0.6085 0.7358 -0.2973
vn -0.0000 -0.9272 -0.3746
vn -0.0000 -0.9272 0.3746
vn -0.0000 0.9272 0.3747
vn -0.0000 0.9272 -0.3747
vn -0.6388 0.6046 0.4758
vn -0.6712 0.7413 -0.0000
vn -0.6430 0.7101 -0.2869
vn 0.8619 -0.4701 -0.1900
vn 0.9993 0.0362 -0.0000
vn 0.8016 0.0290 0.5971
vn 0.5505 0.7272 0.4100
vn -0.7076 -0.6551 0.2647
vn -0.8892 -0.4576 -0.0000
vn -0.7413 -0.3815 -0.5522
vn 0.5505 0.7272 -0.4100
vn -0.6430 0.7101 0.2869
vn -0.6388 0.6046 -0.4758
vn 0.8016 0.0290 -0.5971
vn 0.8619 -0.4701 0.1900
vn 0.6085 0.7358 0.2973
vn -0.7413 -0.3815 0.5522
vn -0.7076 -0.6551 -0.2647
vt 0.416121 0.855419
vt 0.323239 0.923913
vt 0.285241 0.756486
vt 0.285241 0.520566
vt 0.378123 0.452071
vt 0.416121 0.619498
vt 0.326021 0.054884
vt 0.129403 0.000000
vt 0.326021 0.000000
vt 0.652042 0.345056
vt 0.742486 0.154364
vt 0.727005 0.350271
vt 0.235921 0.452071
vt 0.068494 0.606622
vt 0.167427 0.452071
vt 0.167426 0.606622
vt 0.825128 0.998755
vt 0.882270 0.803488
vt 0.883677 1.000000
vt 0.583548 0.738989
vt 0.652042 0.544786
vt 0.652042 0.741100
vt 0.728583 0.998755
vt 0.823721 0.802243
vt 0.484616 0.738989
vt 0.583548 0.542675
vt 0.653449 1.000000
vt 0.727176 0.802243
vt 0.416121 0.741100
vt 0.484616 0.542675
vt 0.326021 0.452071
vt 0.129403 0.397187
vt 0.326021 0.397187
vt 0.652042 0.452071
vt 0.455424 0.397187
vt 0.652042 0.397187
vt 0.819469 0.710807
vt 0.887963 0.516604
vt 0.887963 0.712919
vt 0.823193 0.358565
vt 0.896900 0.168929
vt 0.881419 0.364835
vt 0.720536 0.710807
vt 0.819469 0.514493
vt 0.838674 0.162658
vt 0.652042 0.712919
vt 0.720536 0.514493
vt 0.652042 0.054884
vt 0.455424 0.000000
vt 0.652042 0.000000
vt 0.720816 -0.000000
vt 0.667523 0.149150
vt 0.652042 0.021835
vt 0.583548 0.741100
vt 0.484616 0.985403
vt 0.484616 0.741100
vt 0.365998 0.091216
vt 0.326021 0.335519
vt 0.326021 0.091216
vt 0.068494 0.850925
vt 0.167426 0.850925
vt 0.000000 0.360855
vt 0.039977 0.116553
vt 0.039977 0.360855
vt 0.583548 0.985403
vt 0.416121 0.985403
vt -0.000000 0.850925
vt 0.235921 0.606622
vt 0.235921 0.850925
vt 0.652042 0.392470
vt 0.652042 0.516604
vt 0.819469 0.364835
vt 0.720536 0.364835
vt 0.887963 0.392470
vt 0.129403 0.452071
vt 0.726371 0.740581
vt 0.652042 0.803488
vt 0.659331 0.712919
vt 0.822916 0.740581
vt 0.455424 0.054884
vt 0.000000 0.490070
vt 0.068494 0.452071
vt 0.365998 0.335519
vt 0.455424 0.452071
vt 0.484616 0.479706
vt 0.416121 0.544786
vt 0.416121 0.452071
vt 0.583548 0.479706
vt 0.129403 0.054884
vt 0.323239 0.687992
vt 0.378123 0.687992
vt 0.416121 0.756486
vt 0.378123 0.923913
vt 0.285241 0.855419
vt 0.285241 0.619498
vt 0.323239 0.452071
vt 0.416121 0.520566
vt 0.000000 0.116553
vt 0.652042 0.985403
vt 0.000000 0.606622
vt 0.889559 0.712919
s 1
usemtl ArcoMaterial.001
f 7/1/1 3/2/1 1/3/1
f 15/4/1 11/5/1 9/6/1
f 25/7/2 42/8/2 26/9/2
f 26/10/3 48/11/3 32/12/3
s 0
f 10/13/4 27/13/5 25/13/2
f 1/13/6 20/13/6 19/13/6
f 9/13/6 28/13/6 27/13/6
f 4/13/5 21/13/4 20/13/7
f 12/13/4 29/13/5 28/13/2
f 3/13/5 22/13/5 21/13/2
f 11/13/5 30/13/5 29/13/2
f 8/13/4 23/13/5 22/13/2
f 16/13/5 31/13/4 30/13/7
f 7/13/6 24/13/6 23/13/6
f 15/13/6 32/13/6 31/13/6
f 5/13/4 17/13/5 24/13/2
f 6/13/5 18/13/5 17/13/2
f 13/13/5 26/13/4 32/13/7
f 14/13/5 25/13/5 26/13/2
f 2/13/5 19/13/4 18/13/7
s 1
f 60/14/8 48/15/8 59/16/8
f 19/17/9 34/18/9 18/19/9
f 27/20/10 41/21/10 25/22/10
f 20/23/11 35/24/11 19/17/11
f 28/25/12 43/26/12 27/20/12
f 21/27/3 36/28/3 20/23/3
f 29/29/13 44/30/13 28/25/13
f 22/31/2 37/32/2 21/33/2
f 30/34/7 45/35/7 29/36/7
f 23/37/10 38/38/10 22/39/10
f 31/40/9 46/41/9 30/42/9
f 24/43/12 39/44/12 23/37/12
f 32/12/11 47/45/11 31/40/11
f 17/46/13 40/47/13 24/43/13
f 18/48/7 33/49/7 17/50/7
f 59/51/14 42/52/14 58/53/14
f 56/54/1 63/55/1 55/56/1
f 54/57/7 61/58/7 53/59/7
f 52/60/5 59/16/5 51/61/5
f 50/62/2 57/63/2 49/64/2
f 49/22/15 64/65/15 56/54/15
f 55/56/16 62/66/16 54/29/16
f 53/67/17 60/14/17 52/60/17
f 51/61/18 58/68/18 50/69/18
f 53/70/19 40/47/19 33/71/19
f 51/72/20 40/47/20 52/73/20
f 50/74/21 39/44/21 51/72/21
f 49/64/2 38/75/2 50/62/2
f 56/76/22 37/77/22 49/78/22
f 55/79/23 36/28/23 56/76/23
f 55/79/24 34/18/24 35/24/24
f 54/57/7 33/49/7 34/80/7
f 60/14/25 46/81/25 47/82/25
f 62/83/7 46/84/7 61/58/7
f 63/85/26 45/86/26 62/87/26
f 64/88/27 44/30/27 63/85/27
f 64/88/28 41/21/28 43/26/28
f 57/63/2 42/8/2 41/89/2
f 1/3/1 2/90/1 6/91/1
f 6/91/1 5/92/1 7/1/1
f 7/1/1 8/93/1 3/2/1
f 3/2/1 4/94/1 1/3/1
f 1/3/1 6/91/1 7/1/1
f 9/6/1 10/91/1 14/90/1
f 14/90/1 13/95/1 15/4/1
f 15/4/1 16/96/1 11/5/1
f 11/5/1 12/97/1 9/6/1
f 9/6/1 14/90/1 15/4/1
f 25/7/2 41/89/2 42/8/2
f 26/10/3 42/52/3 48/11/3
s 0
f 10/13/4 9/13/7 27/13/5
f 1/13/6 4/13/6 20/13/6
f 9/13/6 12/13/6 28/13/6
f 4/13/5 3/13/2 21/13/4
f 12/13/4 11/13/7 29/13/5
f 3/13/5 8/13/2 22/13/5
f 11/13/5 16/13/2 30/13/5
f 8/13/4 7/13/7 23/13/5
f 16/13/5 15/13/2 31/13/4
f 7/13/6 5/13/6 24/13/6
f 15/13/6 13/13/6 32/13/6
f 5/13/4 6/13/7 17/13/5
f 6/13/5 2/13/2 18/13/5
f 13/13/5 14/13/2 26/13/4
f 14/13/5 10/13/2 25/13/5
f 2/13/5 1/13/2 19/13/4
s 1
f 60/14/8 47/82/8 48/15/8
f 19/17/9 35/24/9 34/18/9
f 27/20/10 43/26/10 41/21/10
f 20/23/11 36/28/11 35/24/11
f 28/25/12 44/30/12 43/26/12
f 21/27/3 37/77/3 36/28/3
f 29/29/13 45/86/13 44/30/13
f 22/31/2 38/75/2 37/32/2
f 30/34/7 46/84/7 45/35/7
f 23/37/10 39/44/10 38/38/10
f 31/40/9 47/45/9 46/41/9
f 24/43/12 40/47/12 39/44/12
f 32/12/11 48/11/11 47/45/11
f 17/46/13 33/71/13 40/47/13
f 18/48/7 34/80/7 33/49/7
f 59/51/29 48/11/29 42/52/29
f 56/54/1 64/65/1 63/55/1
f 54/57/7 62/83/7 61/58/7
f 52/60/5 60/14/5 59/16/5
f 50/62/2 58/98/2 57/63/2
f 49/22/15 57/99/15 64/65/15
f 55/56/16 63/55/16 62/66/16
f 53/67/17 61/100/17 60/14/17
f 51/61/18 59/16/18 58/68/18
f 53/70/30 52/73/30 40/47/30
f 51/72/20 39/44/20 40/47/20
f 50/74/31 38/38/31 39/44/31
f 49/64/2 37/32/2 38/75/2
f 56/76/32 36/28/32 37/77/32
f 55/79/23 35/24/23 36/28/23
f 55/79/33 54/101/33 34/18/33
f 54/57/7 53/59/7 33/49/7
f 60/14/34 61/100/34 46/81/34
f 62/83/7 45/35/7 46/84/7
f 63/85/35 44/30/35 45/86/35
f 64/88/27 43/26/27 44/30/27
f 64/88/36 57/34/36 41/21/36
f 57/63/2 58/98/2 42/8/2
