# Blender 4.4.0
# www.blender.org
mtllib Torre.mtl
o Torre
v -4.047440 0.000008 9.892624
v -5.405624 0.000007 7.423813
v -4.726532 0.000008 9.561867
v -5.223663 0.000007 8.658218
v 5.288048 0.000007 7.423813
v 3.929863 0.000008 9.892624
v 5.106087 0.000007 8.658218
v 4.608955 0.000008 9.561867
v -4.047440 0.000004 -9.545570
v -5.405624 0.000004 -7.076759
v -4.726532 0.000004 -9.214813
v -5.223663 0.000004 -8.311165
v 3.929863 0.000004 -9.545570
v 5.288048 0.000004 -7.076759
v 4.608955 0.000004 -9.214813
v 5.106087 0.000004 -8.311165
v -5.405624 18.211779 -7.076760
v -5.405624 18.211779 7.423811
v -5.223663 18.211779 8.658217
v -4.726532 18.211779 9.561866
v -4.047440 18.211779 9.892623
v 3.929863 18.211779 9.892623
v 4.608955 18.211779 9.561866
v 5.106087 18.211779 8.658217
v 5.288048 18.211779 7.423811
v 5.288048 18.211779 -7.076760
v 5.106087 18.211779 -8.311166
v 4.608955 18.211779 -9.214814
v 3.929863 18.211779 -9.545571
v -4.047440 18.211779 -9.545571
v -4.726532 18.211779 -9.214814
v -5.223663 18.211779 -8.311166
vn -0.0000 -1.0000 -0.0000
vn -0.0000 1.0000 -0.0000
vn -0.4379 -0.0000 -0.8990
vn 0.8762 -0.0000 0.4820
vn -0.8762 -0.0000 -0.4820
vn 0.9893 -0.0000 0.1458
vn -1.0000 -0.0000 -0.0000
vn -0.9893 -0.0000 -0.1458
vn 1.0000 -0.0000 -0.0000
vn -0.9893 -0.0000 0.1458
vn 0.9893 -0.0000 -0.1458
vn -0.8762 -0.0000 0.4820
vn 0.8762 -0.0000 -0.4820
vn -0.4379 -0.0000 0.8990
vn 0.4379 -0.0000 -0.8990
vn -0.0000 -0.0000 1.0000
vn -0.0000 -0.0000 -1.0000
vn 0.4379 -0.0000 0.8990
vt 0.982984 0.936496
vt 0.936496 0.017016
vt 0.017016 0.063504
vt 1.000000 0.127008
vt 0.872992 1.000000
vt 0.000000 0.872992
vt 0.063504 0.982984
vt 0.127008 1.000000
vt 0.982984 0.063504
vt 0.017016 0.936496
vt 0.000000 0.127008
vt 1.000000 0.872992
vt 0.063504 0.017016
vt 0.936496 0.982984
vt 0.127008 0.000000
vt 0.872992 0.000000
s 1
f 16/1/1 8/2/1 4/3/1
f 25/4/2 29/5/2 17/6/2
f 11/7/3 30/8/3 9/8/3
f 7/9/4 23/2/4 8/2/4
f 12/10/5 31/7/5 11/7/5
f 5/4/6 24/9/6 7/9/6
f 2/11/7 17/6/7 10/6/7
f 10/6/8 32/10/8 12/10/8
f 14/12/9 25/4/9 5/4/9
f 4/3/10 18/11/10 2/11/10
f 16/1/11 26/12/11 14/12/11
f 3/13/12 19/3/12 4/3/12
f 15/14/13 27/1/13 16/1/13
f 1/15/14 20/13/14 3/13/14
f 13/5/15 28/14/15 15/14/15
f 6/16/16 21/15/16 1/15/16
f 9/8/17 29/5/17 13/5/17
f 8/2/18 22/16/18 6/16/18
f 4/3/1 2/11/1 10/6/1
f 10/6/1 12/10/1 11/7/1
f 11/7/1 9/8/1 13/5/1
f 13/5/1 15/14/1 16/1/1
f 16/1/1 14/12/1 5/4/1
f 5/4/1 7/9/1 8/2/1
f 8/2/1 6/16/1 1/15/1
f 1/15/1 3/13/1 4/3/1
f 4/3/1 10/6/1 11/7/1
f 11/7/1 13/5/1 16/1/1
f 16/1/1 5/4/1 8/2/1
f 8/2/1 1/15/1 4/3/1
f 4/3/1 11/7/1 16/1/1
f 17/6/2 18/11/2 19/3/2
f 19/3/2 20/13/2 21/15/2
f 21/15/2 22/16/2 23/2/2
f 23/2/2 24/9/2 25/4/2
f 25/4/2 26/12/2 27/1/2
f 27/1/2 28/14/2 29/5/2
f 29/5/2 30/8/2 31/7/2
f 31/7/2 32/10/2 17/6/2
f 17/6/2 19/3/2 21/15/2
f 21/15/2 23/2/2 25/4/2
f 25/4/2 27/1/2 29/5/2
f 29/5/2 31/7/2 17/6/2
f 17/6/2 21/15/2 25/4/2
f 11/7/3 31/7/3 30/8/3
f 7/9/4 24/9/4 23/2/4
f 12/10/5 32/10/5 31/7/5
f 5/4/6 25/4/6 24/9/6
f 2/11/7 18/11/7 17/6/7
f 10/6/8 17/6/8 32/10/8
f 14/12/9 26/12/9 25/4/9
f 4/3/10 19/3/10 18/11/10
f 16/1/11 27/1/11 26/12/11
f 3/13/12 20/13/12 19/3/12
f 15/14/13 28/14/13 27/1/13
f 1/15/14 21/15/14 20/13/14
f 13/5/15 29/5/15 28/14/15
f 6/16/16 22/16/16 21/15/16
f 9/8/17 30/8/17 29/5/17
f 8/2/18 23/2/18 22/16/18
