# Blender 4.4.0
# www.blender.org
mtllib arwing.mtl
o B4BC_66001
v 1.200419 0.868175 -1.505640
v 0.900420 -0.715748 0.764951
v 0.900420 -0.067986 -0.443189
v -1.199581 0.868174 -1.505640
v -0.899580 -0.715749 0.764951
v -0.899580 0.269726 -0.172726
v -0.599580 -0.132987 -0.388647
v -0.899580 -0.067986 -0.443189
v 0.120420 0.147203 0.539304
v -0.119580 0.147203 0.539304
v -0.119580 0.540189 -0.510439
v 0.120420 0.540189 -0.510439
v 0.600420 -0.132987 -0.388647
v 0.900420 0.269726 -0.172726
v 1.200420 -0.132987 -0.388647
v 1.080420 -0.268219 -0.219790
v 0.780420 -0.268219 -0.219790
v -1.199580 -0.132987 -0.388647
v -1.079580 -0.268220 -0.219790
v -0.779580 -0.268219 -0.219790
v 2.100420 -0.521529 -2.831807
v 1.200420 -0.132987 -0.388647
v 1.620419 -0.327259 -1.610227
v 1.800420 -0.327259 -1.610227
v -0.719580 -0.192759 -0.393876
v 0.000420 -0.327205 3.208113
v 0.720420 -0.192759 -0.393876
v -2.099580 -0.521531 -2.831807
v -1.799580 -0.327260 -1.610227
v -1.619580 -0.327260 -1.610227
v -0.599580 -0.132987 -0.388647
v 1.200420 -0.379552 -1.012511
v 0.600420 -0.132987 -0.388647
v -1.199580 -0.379552 -1.012511
v -1.199580 -0.132987 -0.388647
v 0.000420 -0.585746 0.655868
v 0.000420 0.277936 -0.954988
v -0.599580 -0.132987 -0.388647
v -0.299580 -0.067986 -0.443189
v 0.000420 0.197247 -0.721131
v 0.300420 -0.067986 -0.443189
v 0.000420 -0.327205 3.208113
v -0.599580 -0.132987 -0.388647
v 0.600420 -0.132987 -0.388647
v 1.200420 -0.132987 -0.388647
v 1.080420 -0.268219 -0.219790
v 0.780420 -0.268219 -0.219790
v -1.199580 -0.132987 -0.388647
v -1.079580 -0.268220 -0.219790
v -0.779580 -0.268219 -0.219790
v 2.100420 -0.521529 -2.831807
v 1.620419 -0.327259 -1.610227
v 1.800420 -0.327259 -1.610227
v -0.719580 -0.192759 -0.393876
v 0.000420 -0.327205 3.208113
v 0.720420 -0.192759 -0.393876
v -2.099580 -0.521531 -2.831807
v -1.799580 -0.327260 -1.610227
v -1.619580 -0.327260 -1.610227
v 0.000420 -0.585746 0.655868
vn 0.7327 -0.5998 -0.3216
vn -0.8790 0.3286 0.3454
vn -0.0537 -0.8255 -0.5619
vn -0.0911 -0.8272 -0.5545
vn -0.1045 -0.8765 -0.4699
vn -0.0000 0.9626 0.2709
vn -0.0000 0.9365 0.3506
vn -0.0000 0.9644 0.2644
vn -0.8395 0.4861 0.2428
vn -0.8339 0.4906 0.2528
vn -0.8226 0.3919 0.4119
vn -0.0000 0.7805 0.6251
vn -0.0000 -0.7805 -0.6251
vn -0.0000 0.9876 -0.1571
vn -0.0000 -0.9876 0.1571
vn 0.4468 -0.8862 -0.1224
vn 0.7745 0.5924 0.2218
vn 0.7331 0.6370 0.2384
vn 0.7854 0.5924 0.1794
vn -0.0003 0.9626 0.2709
vn -0.0000 0.9846 0.1750
vn -0.4468 -0.8862 -0.1224
vn -0.0000 -0.9300 0.3676
vn 0.8790 0.3286 0.3454
vn -0.7327 -0.5998 -0.3216
vn -0.5494 -0.8091 -0.2087
vn -0.6795 -0.7299 0.0739
vn -0.7560 0.4537 -0.4717
vn -0.5121 -0.7988 0.3157
vn 0.5121 -0.7988 0.3157
vn 0.6795 -0.7299 0.0739
vn -0.7745 0.5924 0.2218
vn -0.0000 0.8613 -0.5081
vn 0.5494 -0.8091 -0.2087
vn 0.8226 0.3919 0.4119
vn -0.0450 -0.7558 -0.6533
vn -0.8180 0.5707 0.0721
vn 0.0911 -0.8272 -0.5545
vn 0.0537 -0.8255 -0.5619
vn 0.1045 -0.8765 -0.4699
vn 0.8180 0.5707 0.0721
vn 0.0450 -0.7558 -0.6533
vn -0.7040 0.6931 0.1549
vn 0.7560 0.4537 -0.4717
vn 0.4708 -0.8340 -0.2878
vn -0.0171 -0.7110 -0.7030
vn 0.0282 -0.8629 -0.5045
vn 0.0728 -0.7293 -0.6803
vn 0.0891 -0.8487 -0.5214
vn -0.1931 -0.8132 -0.5491
vn -0.0432 -0.8556 -0.5159
vn -0.3215 -0.8951 -0.3088
vn -0.0000 -0.9175 -0.3977
vn 0.6474 0.7448 0.1615
vn 0.7040 0.6931 0.1549
vn 0.7671 0.6208 0.1615
vn -0.4468 0.8862 0.1224
vn 0.4468 0.8862 0.1224
vn 0.6795 0.7299 -0.0739
vn -0.6795 0.7299 -0.0739
vt 0.651309 0.208154
vt 0.671498 0.453818
vt 0.671498 -0.000000
vt 0.671498 0.674480
vt 0.700491 0.895185
vt 0.700491 0.441826
vt 0.691705 0.202805
vt 0.714015 0.160643
vt 0.714015 0.382726
vt 0.738624 0.525970
vt 0.738624 0.382726
vt 0.714015 0.525970
vt 0.537462 0.241627
vt 0.583245 0.175915
vt 0.537462 -0.000000
vt 0.387141 0.653453
vt 0.387141 0.597593
vt 0.400452 0.560416
vt 0.422991 0.606302
vt 0.413882 0.703201
vt 0.422991 0.675516
vt 0.413882 0.564773
vt 0.400571 0.668983
vt 0.400571 0.613123
vt 0.413882 0.676494
vt 0.490022 0.624308
vt 0.490022 0.555094
vt 0.499132 0.513566
vt 0.400452 0.672137
vt 0.499132 0.651994
vt 0.492004 0.513566
vt 0.492004 -0.000000
vt 0.446547 0.093280
vt 0.629028 0.700476
vt 0.613087 0.501728
vt 0.629028 0.480794
vt 0.820341 0.577322
vt 0.833333 0.568587
vt 0.820341 -0.000000
vt 0.343054 0.588647
vt 0.328948 0.414028
vt 0.262124 0.534613
vt 0.726320 0.000000
vt 0.807257 0.568775
vt 0.820341 0.577381
vt 0.473479 0.513566
vt 0.473479 0.733248
vt 0.489420 0.534501
vt 0.537462 0.093280
vt 0.511732 0.513566
vt 0.511732 0.692727
vt 0.537462 0.612177
vt 0.738624 0.453359
vt 0.767617 0.232654
vt 0.738624 0.000000
vt 0.387141 0.664977
vt 0.363627 0.560416
vt 0.343054 0.664977
vt 0.671498 0.441826
vt 0.787480 0.519293
vt 0.807257 0.173547
vt 0.787480 0.000000
vt 0.343054 -0.000000
vt 0.343054 0.560416
vt 0.400571 0.368741
vt 0.540287 0.598056
vt 0.537462 0.667182
vt 0.609656 0.706302
vt 0.655888 0.532478
vt 0.629028 0.453818
vt 0.629028 0.830361
vt 0.446547 0.589103
vt 0.473479 0.873990
vt 0.176126 0.383976
vt 0.262124 0.507725
vt 0.166667 0.000000
vt 0.609656 0.513566
vt 0.726320 0.601786
vt 0.767617 0.173312
vt 0.787480 0.519488
vt 0.629028 0.241627
vt 0.629028 0.000000
vt 0.563091 0.480793
vt 0.629028 0.167791
vt 0.603398 0.480794
vt 0.446547 0.564773
vt 0.446547 0.000000
vt 0.400571 0.402151
vt 0.320855 0.636855
vt 0.245333 0.621565
vt 0.238039 0.586866
vt 0.195076 0.561813
vt 0.242805 0.531007
vt 0.166667 0.569338
vt 0.499132 0.673989
vt 0.500771 0.574306
vt 0.511732 0.699174
s 1
usemtl baked_material
f 3/1/1 1/2/1 2/3/1
f 6/4/2 4/5/2 5/6/2
f 8/7/3 7/8/4 5/3/5
f 9/9/6 11/10/7 10/11/8
f 9/9/6 12/12/7 11/10/7
f 14/13/9 13/14/10 2/15/11
f 17/16/12 16/17/12 15/18/12
f 20/19/12 18/20/12 19/21/12
f 18/20/12 20/19/12 7/22/12
f 19/23/13 7/22/13 20/24/13
f 7/22/13 19/23/13 18/25/13
f 16/26/13 17/27/13 13/28/13
f 15/18/12 13/29/12 17/16/12
f 13/28/13 15/30/13 16/26/13
f 21/31/14 13/32/14 22/33/14
f 21/34/15 24/35/15 23/36/15
f 25/37/16 7/38/16 26/39/16
f 12/40/17 9/41/18 13/42/19
f 9/9/20 10/11/8 26/43/21
f 13/44/22 27/45/22 26/39/22
f 30/46/14 28/47/14 29/48/14
f 31/32/14 28/31/14 18/49/14
f 33/50/23 32/51/23 15/52/23
f 1/53/24 14/54/24 2/55/24
f 34/56/23 7/57/23 35/58/23
f 4/59/25 8/7/25 5/3/25
f 21/60/26 32/61/26 13/62/26
f 26/63/27 7/64/27 36/65/27
f 11/66/28 37/67/28 7/68/28
f 34/69/29 18/70/29 28/71/29
f 15/46/30 32/72/30 21/73/30
f 36/74/31 13/75/31 26/76/31
f 10/77/32 11/66/32 7/68/32
f 12/12/33 37/78/33 11/10/33
f 34/79/34 28/80/34 7/62/34
f 7/14/35 6/81/35 5/82/35
f 8/7/3 4/59/36 7/8/4
f 1/83/37 13/14/10 14/13/9
f 13/84/38 3/1/39 2/3/40
f 7/14/41 4/85/41 6/81/41
f 1/2/42 3/1/39 13/84/38
f 38/86/43 26/87/43 10/88/43
f 12/40/44 13/42/44 37/89/44
f 37/90/45 40/91/45 39/92/45
f 41/93/46 7/94/47 39/92/48
f 37/90/49 39/92/48 7/94/47
f 40/95/50 13/50/51 41/96/46
f 37/97/52 13/50/51 40/95/50
f 41/93/46 13/75/51 7/94/47
f 40/91/50 41/93/46 39/92/48
f 36/74/53 7/94/47 13/75/51
f 9/41/54 42/63/55 13/42/56
f 49/23/12 50/24/12 43/22/12
f 43/22/12 48/25/12 49/23/12
f 46/26/12 44/28/12 47/27/12
f 44/28/12 46/26/12 45/30/12
f 51/34/14 52/36/14 53/35/14
f 54/37/57 55/39/57 43/38/57
f 44/44/58 55/39/58 56/45/58
f 59/46/15 58/48/15 57/47/15
f 55/63/59 60/65/59 43/64/59
f 60/74/60 55/76/60 44/75/60
